<svg xmlns="http://www.w3.org/2000/svg" version="1.1" xmlns:xlink="http://www.w3.org/1999/xlink" xmlns:svgjs="http://svgjs.dev/svgjs" width="100%" height="100%" viewBox="0 0 1000 600"><rect width="1000" height="600" x="0" y="0" fill="#ff8800"/><g><rect width="333.3333333333333" height="333.3333333333333" rx="13.333333333333334" ry="13.333333333333334" y="188.92309675607584" fill="#ff8800" transform="matrix(0.7498460399122153,0,0,0.7498460399122152,0,33.362408809261396)" x="166.7008514404297"/><path d="M283.7049515296735 397.1977598676419L234.90800215328926 367.62029446090986L235.75894113820516 353.6825007424598L286.0523694190967 321.5815611045978L293.65213483610427 333.8174768532162L250.1368757109221 360.0205290439024L250.1368757109221 360.87146802881824L293.2119939818374 383.90550606878315L283.7049515296735 397.1977598676419ZM329.7730276096034 430.58977934468663Q319.0042480418746 430.58977934468663 313.7225577906724 426.89259616884516Q308.4408675394703 423.1954129930036 308.4408675394703 417.5029246111524L308.4408675394703 417.5029246111524L308.4408675394703 292.41489382851483Q308.4408675394703 287.3386026426372 312.8716188057565 283.9641894265914Q317.3023700720428 280.5897762105456 325.34227634331717 280.5897762105456L325.34227634331717 280.5897762105456L359.9960329359268 280.5897762105456L359.9960329359268 292.41489382851483L356.5922769962632 318.82334508452556L342.6544832778131 318.82334508452556L340.5418071773322 294.96771078326253Q340.3364081120077 293.0604337481062 338.0183329462023 293.0604337481062L338.0183329462023 293.0604337481062L329.12748769001206 293.0604337481062Q324.4913373584012 293.0604337481062 323.11222934836513 296.5522178586232Q321.733121338329 300.01465924552235 321.96786312727136 306.35268754696494L321.96786312727136 306.35268754696494L326.3986143935576 411.7810935056835Q326.3986143935576 413.04283062124836 327.66035150912256 413.04283062124836L327.66035150912256 413.04283062124836L340.1310090466832 413.04283062124836Q342.4490842124886 413.04283062124836 342.6544832778131 411.7810935056835L342.6544832778131 411.7810935056835L346.8798354787748 395.31982555610335L359.9960329359268 395.31982555610335L359.9960329359268 430.58977934468663L329.7730276096034 430.58977934468663ZM385.1134043527548 397.1977598676419L373.4936858001101 379.6801538678215L416.5981467946432 360.87146802881824L416.5981467946432 360.0205290439024L373.082887669461 333.8174768532162L380.6826530864685 321.5815611045978L430.9760813673601 353.6825007424598L431.82702035227607 367.62029446090986L385.1134043527548 397.1977598676419Z " fill="#000055" transform="matrix(0.7498460399122153,0,0,0.7498460399122152,0,33.362408809261396)"/><path d="M591.61281832809 430.58977934468663L583.3675129914911 280.5897762105456L598.8017856144486 280.5897762105456L598.8017856144486 412.4266334252748L599.6527245993644 412.4266334252748L611.6832412826582 304.2400114464841L620.779485604173 304.2400114464841L634.9226783879476 412.4266334252748L635.9790164381882 412.4266334252748L635.9790164381882 280.5897762105456L650.7677491415541 280.5897762105456L643.1679837245465 430.58977934468663L629.84638720207 430.58977934468663L616.9649315338604 342.5029230440819L616.1139925489445 342.5029230440819L603.2325368807348 430.58977934468663L591.61281832809 430.58977934468663ZM659.6292516741266 426.36442714372487L664.5001437946796 280.5897762105456L707.3992057238884 280.5897762105456L707.3992057238884 297.0803868837434L677.1762003975648 297.0803868837434L677.1762003975648 340.5956460089256L700.2102384375298 340.5956460089256L700.2102384375298 351.15902651132984L678.2325384478053 354.9442378580247L678.2325384478053 408.8174784202867L708.6609428394531 405.03226707359175L709.2771400354268 426.36442714372487L659.6292516741266 426.36442714372487ZM722.8041356232279 426.36442714372487L722.8041356232279 280.5897762105456L746.6891126481087 280.5897762105456Q753.2325400148759 280.5897762105456 759.2477983565227 282.7024523110265Q765.2630566981695 284.8151284115073 765.2630566981695 290.7423585823009L765.2630566981695 290.7423585823009L765.0576576328451 292.8550346827817L758.9250283967269 346.7282752450437Q758.5142302660779 349.25174947617353 758.1914603062824 349.9853175666182Q757.8686903464866 350.718885657063 756.6069532309216 351.56982464197887L756.6069532309216 351.56982464197887Q761.6832444167992 352.4207636268948 764.5294886077249 353.35973078266414Q767.3757327986505 354.32804066205114 767.3757327986505 356.23531769720745L767.3757327986505 356.23531769720745L767.3757327986505 420.0263988422823Q767.3757327986505 423.840952912595 762.006014376595 425.10269002816Q756.6069532309216 426.36442714372487 751.530662045044 426.36442714372487L751.530662045044 426.36442714372487L722.8041356232279 426.36442714372487ZM737.3874692612694 344.61559914456274L745.4273755325437 341.44658499384144Q747.3053098440823 340.8010450742501 747.3053098440823 339.53930795868513L747.3053098440823 339.53930795868513L749.4179859445633 293.9113727330221Q749.4179859445633 293.0604337481062 746.4837135827843 293.0604337481062L746.4837135827843 293.0604337481062L737.3874692612694 293.0604337481062Q734.8639950301394 293.0604337481062 734.8639950301394 293.9113727330221L734.8639950301394 293.9113727330221L734.8639950301394 342.91372117473094Q734.8639950301394 344.61559914456274 737.3874692612694 344.61559914456274L737.3874692612694 344.61559914456274ZM741.8182205275557 414.53930952575564L744.987234678277 414.53930952575564Q751.530662045044 414.53930952575564 751.530662045044 408.20128122431305L751.530662045044 408.20128122431305L751.530662045044 360.66606896349373Q751.530662045044 360.0205290439024 751.4426338741907 359.6977590841066Q751.3252629797194 359.40433184792874 750.7090657837459 359.40433184792874L750.7090657837459 359.40433184792874L741.8182205275557 359.40433184792874Q741.202023331582 359.40433184792874 740.4391125175196 359.8151299785778Q739.7055444270748 360.2259281092269 739.5001453617501 360.66606896349373L739.5001453617501 360.66606896349373L739.5001453617501 413.8937696061643Q739.7055444270748 414.0991686714888 740.3510843466661 414.3339104604311Q740.9672815426397 414.53930952575564 741.8182205275557 414.53930952575564L741.8182205275557 414.53930952575564ZM836.0377060642784 430.58977934468663Q825.2689264965495 430.58977934468663 819.9872362453473 426.89259616884516Q814.7055459941453 423.1954129930036 814.7055459941453 417.5029246111524L814.7055459941453 417.5029246111524L814.7055459941453 292.41489382851483Q814.7055459941453 287.3386026426372 819.1362972604315 283.9641894265914Q823.5963912503355 280.5897762105456 831.6069547979921 280.5897762105456L831.6069547979921 280.5897762105456L866.2607113906017 280.5897762105456L866.2607113906017 292.41489382851483L862.886298174556 318.82334508452556L848.9485044561059 318.82334508452556L846.8358283556249 294.96771078326253Q846.6010865666826 293.0604337481062 844.2830114008773 293.0604337481062L844.2830114008773 293.0604337481062L835.4215088683047 293.0604337481062Q830.7560158130761 293.0604337481062 829.4062505266579 296.5522178586232Q828.0271425166218 300.01465924552235 828.2325415819464 306.35268754696494L828.2325415819464 306.35268754696494L832.6632928482327 411.7810935056835Q832.6632928482327 413.04283062124836 833.9250299637974 413.04283062124836L833.9250299637974 413.04283062124836L846.3956875013582 413.04283062124836Q848.7137626671636 413.04283062124836 848.9485044561059 411.7810935056835L848.9485044561059 411.7810935056835L853.1738566570675 395.31982555610335L866.2607113906017 395.31982555610335L866.2607113906017 430.58977934468663L836.0377060642784 430.58977934468663ZM893.9308997621774 430.58977934468663L881.4602422246169 421.7282768121141L881.4602422246169 287.3386026426372L890.5564865461317 280.5897762105456L919.0776139026232 280.5897762105456L927.5283183045467 286.5170063813391L927.5283183045467 422.99001392767906L914.2067217820702 430.58977934468663L893.9308997621774 430.58977934468663ZM900.4743271289447 415.8010466413206L909.3651723851349 415.8010466413206Q911.2724494202912 415.8010466413206 911.2724494202912 414.53930952575564L911.2724494202912 414.53930952575564L913.3851255207721 293.47123187875525Q913.3851255207721 291.56395484359894 911.4778484856158 291.56395484359894L911.4778484856158 291.56395484359894L900.4743271289447 291.56395484359894Q898.596392817406 291.56395484359894 898.596392817406 293.47123187875525L898.596392817406 293.47123187875525L898.596392817406 414.53930952575564Q898.596392817406 415.8010466413206 900.4743271289447 415.8010466413206L900.4743271289447 415.8010466413206ZM944.4297271083935 430.58977934468663L944.4297271083935 280.5897762105456L968.7255022639233 280.5897762105456Q978.8780846356788 280.5897762105456 985.3041411079746 287.13320357731266Q991.7595403038883 293.6766309440798 991.7595403038883 303.82921331583503L991.7595403038883 303.82921331583503L985.4215120024458 418.5592626613929L972.5400563342362 430.58977934468663L944.4297271083935 430.58977934468663ZM961.536534977565 416.65198562623647L969.3710421835149 415.5956475759961Q971.2489764950535 414.3339104604311 971.2489764950535 412.83743155592384L971.2489764950535 412.83743155592384L973.5963943844765 295.7893070445607Q973.5963943844765 294.5275699289957 971.0435774297289 294.5275699289957L971.0435774297289 294.5275699289957L961.536534977565 294.5275699289957Q960.9203377815913 294.5275699289957 960.274797862 294.96771078326253Q959.6292579424087 295.3785089139116 959.6292579424087 295.7893070445607L959.6292579424087 295.7893070445607L959.6292579424087 415.3902485106716L961.536534977565 416.65198562623647ZM1007.6046110574948 430.58977934468663L1007.6046110574948 300.4548000997892L1003.7900569871822 290.30221772803395L1003.7900569871822 280.5897762105456L1025.1222170573153 280.5897762105456L1023.2442827457769 430.58977934468663L1007.6046110574948 430.58977934468663ZM1037.7982736602005 430.58977934468663L1037.7982736602005 280.5897762105456L1062.3287906046726 280.5897762105456L1081.3428755090004 418.3245208724505L1082.1644717702984 418.3245208724505L1086.829964825527 280.5897762105456L1099.0658805741455 280.5897762105456L1096.9532044736645 430.58977934468663L1072.6574293181347 430.58977934468663L1051.119870182677 293.0604337481062L1050.268931197761 293.0604337481062L1050.268931197761 430.58977934468663L1037.7982736602005 430.58977934468663ZM1122.5400594683772 426.36442714372487Q1117.8745664131486 426.36442714372487 1114.7055522624273 422.1390749427632Q1111.536538111706 417.91372274180145 1111.536538111706 410.10855825946936L1111.536538111706 410.10855825946936L1111.536538111706 292.0040956978658L1119.1363035287136 280.5897762105456L1164.148041558403 280.5897762105456L1164.148041558403 312.07451865243394L1155.0517972368882 312.07451865243394L1148.7137689354456 293.0604337481062L1134.570576151671 293.0604337481062Q1126.1198717497475 293.0604337481062 1125.7090736190983 302.5674762002701L1125.7090736190983 302.5674762002701L1129.4942849657934 407.3503422393972Q1129.4942849657934 408.8174784202867 1130.9907638703005 409.9911873649982Q1132.45790005119 411.16489630970983 1133.9250362320795 411.16489630970983L1133.9250362320795 411.16489630970983L1149.359308855037 411.16489630970983Q1150.8264450359263 411.16489630970983 1152.2055530459625 410.40198549564735Q1153.5846610559986 409.66841740520255 1153.5846610559986 408.6120793549621L1153.5846610559986 408.6120793549621L1155.6973371564795 367.62029446090986L1143.0212805535944 367.20949633026083L1143.0212805535944 355.3843787122916L1166.906257578475 352.62616269221934L1166.906257578475 426.36442714372487L1122.5400594683772 426.36442714372487Z " fill="#000055" transform="matrix(0.7498460399122153,0,0,0.7498460399122152,0,33.362408809261396)"/></g></svg>